<svg width="3360" height="100" class="sc-AxheI eJXcQU">
  <path fill="red"
    d="M0,0L1680,0 M1680,0L1680.8333333333333,0C1681.6666666666667,0,1683.3333333333333,0,1685,1.6666666666666667C1686.6666666666667,3.3333333333333335,1688.3333333333333,6.666666666666667,1690,23.333333333333332C1691.6666666666667,40,1693.3333333333333,70,1715.8333333333333,85C1738.3333333333333,100,1781.6666666666667,100,1804.1666666666667,85C1826.6666666666667,70,1828.3333333333333,40,1830,23.333333333333332C1831.6666666666667,6.666666666666667,1833.3333333333333,3.3333333333333335,1835,1.6666666666666667C1836.6666666666667,0,1838.3333333333333,0,1839.1666666666667,0L1840,0 M1840,0L3360,0L3360,100L0,100L0,0"
    class="sc-Axmtr hBVTto"></path>
</svg>